<svg width="32" height="33" viewBox="0 0 32 33" fill="none" xmlns="http://www.w3.org/2000/svg">
<path d="M12.0562 25.7033H19.9442C19.7866 26.6488 19.304 27.5071 18.582 28.126C17.8601 28.7449 16.9454 29.0845 16.0002 29.0845C15.055 29.0845 14.1403 28.7449 13.4183 28.126C12.6964 27.5071 12.2138 26.6488 12.0562 25.7033ZM16.0002 2.70926C18.6523 2.70926 21.1959 3.77804 23.0713 5.6805C24.9466 7.58295 26.0002 10.1632 26.0002 12.8537V18.2641L27.8908 22.5383C27.9768 22.7337 28.0133 22.9479 27.9969 23.1613C27.9805 23.3747 27.9119 23.5806 27.7972 23.7603C27.6825 23.9399 27.5253 24.0877 27.34 24.1901C27.1548 24.2925 26.9472 24.3463 26.7362 24.3467H5.26951C5.05822 24.3466 4.8503 24.293 4.66467 24.1906C4.47904 24.0882 4.32161 23.9404 4.20671 23.7605C4.09181 23.5806 4.02309 23.3744 4.00682 23.1607C3.99054 22.947 4.02722 22.7326 4.11351 22.5369L6.00018 18.2627V12.8361L6.00685 12.498C6.09806 9.87103 7.19084 7.38257 9.05498 5.55686C10.9191 3.73115 13.409 2.71073 16.0002 2.71061V2.70926Z" fill="white"/>
</svg>
