<svg width="34" height="34" viewBox="0 0 34 34" fill="none" xmlns="http://www.w3.org/2000/svg">
<path d="M17 24.0833L18.4167 21.25V13.9655C20.8548 13.3323 22.6667 11.1322 22.6667 8.50001C22.6667 5.37484 20.1252 2.83334 17 2.83334C13.8749 2.83334 11.3334 5.37484 11.3334 8.50001C11.3334 11.1322 13.1453 13.3323 15.5834 13.9655V21.25L17 24.0833ZM14.1667 8.50001C14.1667 6.93743 15.4375 5.66668 17 5.66668C18.5626 5.66668 19.8334 6.93743 19.8334 8.50001C19.8334 10.0626 18.5626 11.3333 17 11.3333C15.4375 11.3333 14.1667 10.0626 14.1667 8.50001Z" fill="white"/>
<path d="M23.045 14.9642L22.2899 17.6956C25.9605 18.7099 28.3334 20.6607 28.3334 22.6667C28.3334 25.347 23.6796 28.3333 17 28.3333C10.3205 28.3333 5.66671 25.347 5.66671 22.6667C5.66671 20.6607 8.03962 18.7099 11.7116 17.6942L10.9565 14.9628C5.94579 16.3483 2.83337 19.2992 2.83337 22.6667C2.83337 27.4323 9.05679 31.1667 17 31.1667C24.9433 31.1667 31.1667 27.4323 31.1667 22.6667C31.1667 19.2992 28.0543 16.3483 23.045 14.9642Z" fill="white"/>
</svg>
