<svg width="25" height="25" viewBox="0 0 25 25" fill="none" xmlns="http://www.w3.org/2000/svg">
<path d="M12.375 12.375C14.016 12.375 15.5898 11.7231 16.7502 10.5627C17.9106 9.40234 18.5625 7.82853 18.5625 6.1875C18.5625 4.54647 17.9106 2.97266 16.7502 1.81228C15.5898 0.651896 14.016 0 12.375 0C10.734 0 9.16016 0.651896 7.99978 1.81228C6.8394 2.97266 6.1875 4.54647 6.1875 6.1875C6.1875 7.82853 6.8394 9.40234 7.99978 10.5627C9.16016 11.7231 10.734 12.375 12.375 12.375ZM16.5 6.1875C16.5 7.28152 16.0654 8.33073 15.2918 9.10432C14.5182 9.8779 13.469 10.3125 12.375 10.3125C11.281 10.3125 10.2318 9.8779 9.45818 9.10432C8.6846 8.33073 8.25 7.28152 8.25 6.1875C8.25 5.09348 8.6846 4.04427 9.45818 3.27068C10.2318 2.4971 11.281 2.0625 12.375 2.0625C13.469 2.0625 14.5182 2.4971 15.2918 3.27068C16.0654 4.04427 16.5 5.09348 16.5 6.1875ZM24.75 22.6875C24.75 24.75 22.6875 24.75 22.6875 24.75H2.0625C2.0625 24.75 0 24.75 0 22.6875C0 20.625 2.0625 14.4375 12.375 14.4375C22.6875 14.4375 24.75 20.625 24.75 22.6875ZM22.6875 22.6793C22.6854 22.1719 22.3699 20.6456 20.9715 19.2472C19.6268 17.9025 17.0961 16.5 12.375 16.5C7.65188 16.5 5.12325 17.9025 3.7785 19.2472C2.38013 20.6456 2.06663 22.1719 2.0625 22.6793H22.6875Z" fill="#7D7D7D"/>
</svg>
