<svg width="11" height="13" viewBox="0 0 11 13" fill="none" xmlns="http://www.w3.org/2000/svg">
<path d="M5.33333 0C2.66667 0 0 0.333333 0 2.66667V9C0 9.63333 0.253333 10.2067 0.666667 10.6267V12C0.666667 12.3667 0.966667 12.6667 1.33333 12.6667H2C2.36667 12.6667 2.66667 12.3667 2.66667 12V11.3333H8V12C8 12.3667 8.3 12.6667 8.66667 12.6667H9.33333C9.7 12.6667 10 12.3667 10 12V10.6267C10.4133 10.2067 10.6667 9.63333 10.6667 9V2.66667C10.6667 0.333333 8.28 0 5.33333 0ZM3 9.33333C2.44667 9.33333 2 8.88667 2 8.33333C2 7.78 2.44667 7.33333 3 7.33333C3.55333 7.33333 4 7.78 4 8.33333C4 8.88667 3.55333 9.33333 3 9.33333ZM7.66667 9.33333C7.11333 9.33333 6.66667 8.88667 6.66667 8.33333C6.66667 7.78 7.11333 7.33333 7.66667 7.33333C8.22 7.33333 8.66667 7.78 8.66667 8.33333C8.66667 8.88667 8.22 9.33333 7.66667 9.33333ZM9.33333 5.33333H1.33333V3.33333H9.33333V5.33333Z" fill="white"/>
</svg>
