<svg width="12" height="13" viewBox="0 0 12 13" fill="none" xmlns="http://www.w3.org/2000/svg">
<path d="M5.99984 0.333313C3.33317 0.333313 0.666504 0.666646 0.666504 2.99998V9.33331C0.666504 9.96665 0.919837 10.54 1.33317 10.96V12.3333C1.33317 12.7 1.63317 13 1.99984 13H2.6665C3.03317 13 3.33317 12.7 3.33317 12.3333V11.6666H8.6665V12.3333C8.6665 12.7 8.9665 13 9.33317 13H9.99984C10.3665 13 10.6665 12.7 10.6665 12.3333V10.96C11.0798 10.54 11.3332 9.96665 11.3332 9.33331V2.99998C11.3332 0.666646 8.9465 0.333313 5.99984 0.333313ZM3.6665 9.66665C3.11317 9.66665 2.6665 9.21998 2.6665 8.66665C2.6665 8.11331 3.11317 7.66665 3.6665 7.66665C4.21984 7.66665 4.6665 8.11331 4.6665 8.66665C4.6665 9.21998 4.21984 9.66665 3.6665 9.66665ZM8.33317 9.66665C7.77984 9.66665 7.33317 9.21998 7.33317 8.66665C7.33317 8.11331 7.77984 7.66665 8.33317 7.66665C8.8865 7.66665 9.33317 8.11331 9.33317 8.66665C9.33317 9.21998 8.8865 9.66665 8.33317 9.66665ZM9.99984 5.66665H1.99984V3.66665H9.99984V5.66665Z" fill="#486AE8"/>
</svg>
