<svg width="30" height="30" viewBox="0 0 30 30" fill="none" xmlns="http://www.w3.org/2000/svg">
<path d="M15.0002 22.0833L16.4168 19.25V11.9655C18.8549 11.3322 20.6668 9.13215 20.6668 6.49998C20.6668 3.37481 18.1253 0.833313 15.0002 0.833313C11.875 0.833313 9.3335 3.37481 9.3335 6.49998C9.3335 9.13215 11.1454 11.3322 13.5835 11.9655V19.25L15.0002 22.0833ZM12.1668 6.49998C12.1668 4.9374 13.4376 3.66665 15.0002 3.66665C16.5627 3.66665 17.8335 4.9374 17.8335 6.49998C17.8335 8.06256 16.5627 9.33331 15.0002 9.33331C13.4376 9.33331 12.1668 8.06256 12.1668 6.49998Z" fill="white"/>
<path d="M21.0451 12.9642L20.29 15.6956C23.9606 16.7099 26.3335 18.6607 26.3335 20.6667C26.3335 23.347 21.6797 26.3333 15.0002 26.3333C8.32058 26.3333 3.66683 23.347 3.66683 20.6667C3.66683 18.6607 6.03975 16.7099 9.71175 15.6942L8.95666 12.9628C3.94591 14.3483 0.833496 17.2992 0.833496 20.6667C0.833496 25.4323 7.05691 29.1667 15.0002 29.1667C22.9434 29.1667 29.1668 25.4323 29.1668 20.6667C29.1668 17.2992 26.0544 14.3483 21.0451 12.9642Z" fill="white"/>
</svg>
