<svg width="19" height="23" viewBox="0 0 19 23" fill="none" xmlns="http://www.w3.org/2000/svg">
<path fill-rule="evenodd" clip-rule="evenodd" d="M18.5003 9.29261C18.5003 14.9483 13.5599 19.7757 10.9141 21.9555C9.95479 22.7458 8.61684 22.7458 7.65751 21.9555C5.01168 19.7757 0.0712891 14.9483 0.0712891 9.29261C0.0712891 4.17361 4.19678 0.0238342 9.28582 0.0238342C14.3749 0.0238342 18.5003 4.17361 18.5003 9.29261ZM12.9998 9.5C12.9998 11.4331 11.4328 13 9.49976 13C7.56671 13 5.99976 11.4331 5.99976 9.5C5.99976 7.56701 7.56671 6 9.49976 6C11.4328 6 12.9998 7.56701 12.9998 9.5Z" fill="#486AE8"/>
</svg>
