<svg width="27" height="27" viewBox="0 0 27 27" fill="none" xmlns="http://www.w3.org/2000/svg">
<path d="M11.296 22.9184C13.8023 22.9179 16.2364 22.0667 18.2106 20.5005L24.4178 26.7973L26.4144 24.7719L20.2072 18.4751C21.7519 16.4721 22.5915 14.0023 22.5921 11.4592C22.5921 5.14088 17.5244 0 11.296 0C5.06769 0 0 5.14088 0 11.4592C0 17.7775 5.06769 22.9184 11.296 22.9184ZM11.296 2.8648C15.9684 2.8648 19.7681 6.71939 19.7681 11.4592C19.7681 16.199 15.9684 20.0536 11.296 20.0536C6.62372 20.0536 2.82401 16.199 2.82401 11.4592C2.82401 6.71939 6.62372 2.8648 11.296 2.8648Z" fill="white"/>
<path d="M13.2897 9.43388C13.8249 9.97819 14.12 10.6973 14.12 11.4593H16.944C16.9453 10.7065 16.7994 9.96084 16.5149 9.26555C16.2303 8.57025 15.8128 7.93906 15.2863 7.40846C13.1485 5.24267 9.44203 5.24267 7.30566 7.40846L9.29942 9.43674C10.3725 8.35098 12.2223 8.35385 13.2897 9.43388Z" fill="white"/>
</svg>
