<svg width="22" height="22" viewBox="0 0 22 22" fill="none" xmlns="http://www.w3.org/2000/svg">
<path d="M9.40774 18.8155C11.4951 18.8151 13.5222 18.1163 15.1665 16.8304L20.336 22L21.9988 20.3372L16.8293 15.1676C18.1158 13.5232 18.815 11.4956 18.8155 9.40774C18.8155 4.22055 14.5949 0 9.40774 0C4.22055 0 0 4.22055 0 9.40774C0 14.5949 4.22055 18.8155 9.40774 18.8155ZM9.40774 2.35193C13.299 2.35193 16.4635 5.51646 16.4635 9.40774C16.4635 13.299 13.299 16.4635 9.40774 16.4635C5.51646 16.4635 2.35193 13.299 2.35193 9.40774C2.35193 5.51646 5.51646 2.35193 9.40774 2.35193Z" fill="#B6B6B6"/>
<path d="M11.0685 7.74543C11.5142 8.19232 11.76 8.78269 11.76 9.40833H14.1121C14.1131 8.79024 13.9916 8.17808 13.7546 7.60723C13.5177 7.03637 13.1699 6.51815 12.7314 6.08252C10.9509 4.30436 7.86381 4.30436 6.08447 6.08252L7.74503 7.74778C8.63881 6.85635 10.1794 6.8587 11.0685 7.74543Z" fill="#B6B6B6"/>
</svg>
